# xmcd
#
# Track frame offsets:
#	150
#	13243
#	26770
#	38857
#	57619
#	70810
#	84722
#	99421
#	113360
#	130162
#	141069
#	155572
#	170361
#	180971
#	196477
#	208001
#
# Disc length: 2987 seconds
#
# Revision: 0
# Processed by: cddbd v1.5.2PL0 Copyright (c) Steve Scherf et al.
# Submitted via: dBpowerAMP V4.0
#
DISCID=da0ba910
DTITLE=Dolly Parton - 16 Biggest Hits
DYEAR=2007
DGENRE=Country
TTITLE0=Here You Come Again
TTITLE1=9 To 5
TTITLE2=Jolene
TTITLE3=Islands In The Stream (Duet With Kenny Rogers)
TTITLE4=I Will Always Love You
TTITLE5=Coat Of Many Colors
TTITLE6=The Seeker
TTITLE7=Two Doors Down
TTITLE8=Single Women
TTITLE9=All I Can Do
TTITLE10=Heartbreak Express
TTITLE11=Don't Call It Love
TTITLE12=Love Is Like A Butterfly
TTITLE13=Rockin Years (Duet With Ricky Van Shelton)
TTITLE14=Why'd You In Here Lookin' Like That
TTITLE15=Romeo (With Billy Ray Cyrues, Tanya Tucker, Mary Chapin Carpenter, Kathy Mattea And Pam Tillis)
EXTD=
EXTT0=
EXTT1=
EXTT2=
EXTT3=
EXTT4=
EXTT5=
EXTT6=
EXTT7=
EXTT8=
EXTT9=
EXTT10=
EXTT11=
EXTT12=
EXTT13=
EXTT14=
EXTT15=
PLAYORDER=
